<svg xmlns="http://www.w3.org/2000/svg" width="371" height="371" viewBox="0 0 371 371">
<g>

<path d="M 204.00 341.99 C202.20,345.56 199.68,351.19 198.41,354.49 C195.24,362.74 195.25,358.09 198.44,345.86 C202.82,329.09 209.70,314.73 222.08,296.50 C232.06,281.80 242.81,269.48 270.45,241.00 C312.19,198.01 327.88,179.51 340.61,158.34 C346.65,148.30 355.12,129.55 356.47,123.25 C356.85,121.46 357.51,120.00 357.95,120.00 C360.36,120.00 360.77,148.19 358.52,158.91 C353.75,181.58 342.95,200.83 323.01,222.20 C312.93,233.00 299.27,245.28 272.56,267.54 C235.25,298.65 214.48,321.20 204.00,341.99 ZM 210.98 104.65 C205.77,107.75 199.81,111.61 197.75,113.23 C193.42,116.62 193.20,116.09 196.13,109.38 C204.41,90.44 223.22,71.31 242.19,62.55 C268.67,50.32 298.00,52.70 322.06,69.04 C334.57,77.54 348.24,92.38 350.52,99.92 L 351.25 102.35 L 346.87 99.62 C329.82,89.00 313.13,84.08 291.37,83.29 C262.64,82.24 237.40,88.95 210.98,104.65 ZM 207.05 83.34 C205.41,86.73 202.23,91.53 199.97,94.00 L 195.87 98.50 L 196.45 94.50 C196.76,92.30 197.52,87.12 198.13,83.00 C199.47,73.88 198.63,54.98 196.48,46.00 C193.53,33.65 186.95,18.94 181.09,11.60 C179.38,9.45 178.16,7.50 178.39,7.27 C179.18,6.49 184.72,9.90 190.02,14.43 C209.43,31.00 217.18,62.34 207.05,83.34 Z" fill="rgb(18,135,67)" data-index="1" style="opacity: 1; visibility: visible;"></path>
<path d="M 179.54 354.73 C180.91,359.45 181.90,363.43 181.76,363.58 C181.61,363.73 179.62,359.94 177.34,355.17 C169.48,338.73 159.52,325.67 141.34,307.98 C129.54,296.49 117.12,285.94 98.89,271.90 C59.00,241.19 36.34,218.89 24.11,198.30 C15.81,184.33 11.35,165.20 12.35,147.82 C13.07,135.37 15.07,127.65 20.50,116.50 C28.26,100.55 39.20,89.46 55.80,80.72 C72.31,72.02 91.88,68.64 110.11,71.33 C134.31,74.90 153.55,85.60 168.64,103.89 C174.85,111.42 175.69,114.00 170.25,108.85 C150.04,89.70 115.71,78.74 90.62,83.45 C68.48,87.60 53.84,98.56 44.78,117.77 C39.25,129.50 37.70,137.83 38.30,152.50 C39.28,176.51 48.14,196.39 68.82,221.00 C76.91,230.63 88.48,242.17 119.96,272.00 C155.99,306.14 171.84,328.15 179.54,354.73 ZM 159.55 287.12 C162.38,294.35 162.46,298.32 159.66,292.39 C154.19,280.86 145.36,270.36 118.50,243.49 C97.96,222.95 87.47,210.38 83.32,201.36 C80.78,195.83 79.87,185.86 81.25,178.50 L 82.00 174.50 L 76.92 172.05 C66.80,167.15 60.19,155.93 59.29,142.10 C58.70,132.89 60.54,123.45 63.41,121.08 C64.65,120.05 64.65,120.52 63.42,124.60 C57.93,142.84 68.72,158.44 85.61,156.70 C95.31,155.70 104.65,148.55 116.82,132.80 C124.39,122.99 137.41,111.02 140.50,111.01 C141.05,111.01 139.91,112.47 137.97,114.25 C132.99,118.83 129.48,124.32 120.55,141.50 C116.26,149.75 111.91,157.69 110.88,159.15 C109.84,160.61 109.00,162.21 109.00,162.70 C109.00,163.20 111.81,164.17 115.25,164.86 C128.48,167.52 146.70,179.46 154.16,190.34 C156.10,193.18 155.87,193.07 151.91,189.35 C140.64,178.73 129.65,173.40 120.82,174.24 C114.70,174.83 111.19,177.28 108.20,183.06 C106.16,186.99 105.93,188.66 106.20,197.50 C106.48,206.82 106.76,208.03 110.40,215.30 C115.13,224.80 121.10,233.21 136.18,251.65 C149.10,267.45 155.86,277.72 159.55,287.12 ZM 91.80 146.60 C83.07,151.14 71.97,143.51 72.02,133.00 C72.05,125.67 79.30,118.00 86.20,118.00 C90.35,118.00 95.31,120.78 97.91,124.57 C99.88,127.45 100.18,128.90 99.81,133.97 C99.34,140.41 97.20,143.78 91.80,146.60 Z" fill="rgb(165,38,49)" data-index="2" style="opacity: 1; visibility: visible;"></path>

</g>
</svg>